HIERARCHY
ROOT Hips
{
	OFFSET 0.00000 0.00000 0.00000
	CHANNELS 6 Xposition Yposition Zposition Zrotation Yrotation Xrotation 
	JOINT LHipJoint
	{
		OFFSET 0 0 0
		CHANNELS 3 Zrotation Yrotation Xrotation
		JOINT LeftUpLeg
		{
			OFFSET 1.57314 -1.85774 0.63783
			CHANNELS 3 Zrotation Yrotation Xrotation
			JOINT LeftLeg
			{
				OFFSET 2.57982 -7.08799 0.00000
				CHANNELS 3 Zrotation Yrotation Xrotation
				JOINT LeftFoot
				{
					OFFSET 2.63993 -7.25315 0.00000
					CHANNELS 3 Zrotation Yrotation Xrotation
					JOINT LeftToeBase
					{
						OFFSET 0.16864 -0.46332 2.12791
						CHANNELS 3 Zrotation Yrotation Xrotation
						End Site
						{
							OFFSET 0.00000 -0.00000 1.09718
						}
					}
				}
			}
		}
	}
	JOINT RHipJoint
	{
		OFFSET 0 0 0
		CHANNELS 3 Zrotation Yrotation Xrotation
		JOINT RightUpLeg
		{
			OFFSET -1.56006 -1.85774 0.63784
			CHANNELS 3 Zrotation Yrotation Xrotation
			JOINT RightLeg
			{
				OFFSET -2.54246 -6.98536 0.00000
				CHANNELS 3 Zrotation Yrotation Xrotation
				JOINT RightFoot
				{
					OFFSET -2.65791 -7.30256 0.00000
					CHANNELS 3 Zrotation Yrotation Xrotation
					JOINT RightToeBase
					{
						OFFSET -0.18435 -0.50650 2.16316
						CHANNELS 3 Zrotation Yrotation Xrotation
						End Site
						{
							OFFSET -0.00000 -0.00000 1.11780
						}
					}
				}
			}
		}
	}
	JOINT LowerBack
	{
		OFFSET 0 0 0
		CHANNELS 3 Zrotation Yrotation Xrotation
		JOINT Spine
		{
			OFFSET -0.00136 1.92812 -0.29638
			CHANNELS 3 Zrotation Yrotation Xrotation
			JOINT Spine1
			{
				OFFSET -0.00528 1.96223 -0.02928
				CHANNELS 3 Zrotation Yrotation Xrotation
				JOINT Neck
				{
					OFFSET 0 0 0
					CHANNELS 3 Zrotation Yrotation Xrotation
					JOINT Neck1
					{
						OFFSET -0.01015 1.75586 0.07797
						CHANNELS 3 Zrotation Yrotation Xrotation
						JOINT Head
						{
							OFFSET 0.05540 1.72452 0.04558
							CHANNELS 3 Zrotation Yrotation Xrotation
							End Site
							{
								OFFSET 0.02170 1.79958 0.00864
							}
						}
					}
				}
				JOINT LeftShoulder
				{
					OFFSET 0 0 0
					CHANNELS 3 Zrotation Yrotation Xrotation
					JOINT LeftArm
					{
						OFFSET 3.16292 1.29277 -0.65728
						CHANNELS 3 Zrotation Yrotation Xrotation
						JOINT LeftForeArm
						{
							OFFSET 5.52302 -0.00000 -0.00000
							CHANNELS 3 Zrotation Yrotation Xrotation
							JOINT LeftHand
							{
								OFFSET 3.58675 -0.00000 -0.00000
								CHANNELS 3 Zrotation Yrotation Xrotation
								JOINT LeftFingerBase
								{
									OFFSET 0 0 0
									CHANNELS 3 Zrotation Yrotation Xrotation
									JOINT LeftHandIndex1
									{
										OFFSET 0.53641 -0.00000 -0.00000
										CHANNELS 3 Zrotation Yrotation Xrotation
										End Site
										{
											OFFSET 0.43247 -0.00000 -0.00000
										}
									}
								}
								JOINT LThumb
								{
									OFFSET 0 0 0
									CHANNELS 3 Zrotation Yrotation Xrotation
									End Site
									{
										OFFSET 0.43907 -0.00000 0.43907
									}
								}
							}
						}
					}
				}
				JOINT RightShoulder
				{
					OFFSET 0 0 0
					CHANNELS 3 Zrotation Yrotation Xrotation
					JOINT RightArm
					{
						OFFSET -3.08296 1.43376 -0.52927
						CHANNELS 3 Zrotation Yrotation Xrotation
						JOINT RightForeArm
						{
							OFFSET -5.84780 -0.00000 0.00000
							CHANNELS 3 Zrotation Yrotation Xrotation
							JOINT RightHand
							{
								OFFSET -3.62717 -0.00000 -0.00000
								CHANNELS 3 Zrotation Yrotation Xrotation
								JOINT RightFingerBase
								{
									OFFSET 0 0 0
									CHANNELS 3 Zrotation Yrotation Xrotation
									JOINT RightHandIndex1
									{
										OFFSET -0.65052 -0.00000 -0.00000
										CHANNELS 3 Zrotation Yrotation Xrotation
										End Site
										{
											OFFSET -0.52446 -0.00000 -0.00000
										}
									}
								}
								JOINT RThumb
								{
									OFFSET 0 0 0
									CHANNELS 3 Zrotation Yrotation Xrotation
									End Site
									{
										OFFSET -0.53247 -0.00000 0.53247
									}
								}
							}
						}
					}
				}
			}
		}
	}
}
MOTION
Frames: 11
Frame Time: .0083333
0.0154 18.0056 -30.6689 0 0 0 0 0 0 -21 0 0 0 0 0 0 0 0 0 0 0 0 0 0 21 0 0 0 0 0 0 0 0 0 0 0 0 0 0 0 0 0 0 0 0 0 0 -16 0 0 21 0 0 11 0 0 0 -8 0 0 0 0 0 0 0 0 0 0 0 0 0 0 0 0 0 0 0 0 8 0 0 0 0 0 0 0 0 0 0 0 0 0 0 0 0 0
0.0154 18.0056 -30.6689 -5.2944 -1.5294 4.5012 0.0000 0.0000 0.0000 -15.0157 -6.9858 -28.9848 2.4613 9.7672 28.2262 -0.0566 -4.2698 2.2773 0.2168 -2.9973 -8.2713 0.0000 0.0000 0.0000 29.8694 1.1752 6.5047 -15.3662 -19.4772 76.3372 -1.1306 -20.0573 22.1409 -1.1341 -6.7634 19.0164 2.3173 0.6239 16.6573 0.3458 1.2732 1.6400 -1.2347 0.5470 -7.5431 -0.3707 0.1936 -1.8004 0.0868 0.2657 -11.6206 0.0857 0.1461 -3.4216 -0.0000 0.0000 0.0000 -84.8112 20.4543 39.9945 124.4274 -55.0099 -89.3154 -0.0000 0.0000 -26.7636 39.3031 6.8711 5.5933 -7.1250 0.0000 -0.0000 10.8200 38.6168 -1.7251 -0.0000 0.0000 0.0000 78.9042 -10.4657 46.0763 -95.0528 59.9033 -64.3744 0.0000 -0.0000 -1.7724 -38.3977 27.8536 -20.3185 7.1250 -0.0000 -0.0000 -4.6110 3.9125 -4.9304
0.0242 17.8811 -30.1748 -4.8804 -0.7938 4.0718 0.0000 0.0000 0.0000 -15.8696 -7.0617 -28.3341 3.0612 10.7934 31.5863 -0.0736 -5.6218 -1.0559 0.1244 -2.2740 -6.2636 0.0000 0.0000 0.0000 28.8023 0.2999 3.8085 -17.1183 -19.7997 81.5474 -0.8561 -20.2568 20.4767 -1.2613 -7.1191 20.0688 1.9242 0.2821 17.0795 0.2681 0.7530 1.7582 -0.9809 0.3062 -7.6709 -0.4674 0.2068 -1.9225 0.2111 0.2937 -11.4690 0.1422 0.1593 -3.3466 -0.0000 0.0000 0.0000 -84.4413 18.4212 40.5662 125.0447 -54.8085 -89.8205 -0.0000 0.0000 -27.0304 39.7290 6.1159 5.0599 -7.1250 0.0000 -0.0000 11.1043 37.6970 -2.0263 -0.0000 0.0000 0.0000 79.0883 -11.0651 44.9790 -91.1785 59.9948 -61.0206 0.0000 -0.0000 -1.4107 -38.5559 27.4325 -20.1629 7.1250 -0.0000 -0.0000 -4.7976 3.4903 -5.0983
0.0523 17.7574 -29.6766 -4.4037 0.1431 3.5538 0.0000 0.0000 0.0000 -16.7812 -7.6066 -27.4003 3.5936 11.5991 34.3280 -0.0398 -6.7303 -3.6461 0.0298 -1.1149 -3.0649 0.0000 0.0000 0.0000 27.5180 -0.7653 1.1802 -18.7912 -19.9649 86.4637 -0.6073 -19.9627 18.6533 -1.3569 -7.3735 20.8266 1.8868 -0.2607 17.1766 0.0343 0.0098 2.1806 -1.0373 -0.0480 -7.2896 -0.4605 0.2851 -2.2171 0.3853 0.4162 -11.5577 0.1951 0.2139 -3.3236 0.0000 0.0000 0.0000 -84.0498 15.8753 40.9198 125.7213 -54.5819 -90.3727 -0.0000 0.0000 -27.2326 39.8873 5.7260 4.7665 -7.1250 0.0000 -0.0000 11.1939 37.2136 -2.1779 0.0000 0.0000 0.0000 79.4525 -11.3479 43.8174 -87.4782 59.9760 -57.8163 0.0000 -0.0000 -0.8313 -38.3397 27.1198 -19.8255 7.1250 -0.0000 -0.0000 -4.7455 3.0626 -5.0091
0.0729 17.6372 -29.1915 -3.9959 0.7099 3.0192 0.0000 0.0000 0.0000 -17.5786 -7.9916 -26.6862 4.1000 12.2923 36.7739 0.0567 -7.0664 -6.1932 0.0449 -1.3680 -3.7620 0.0000 0.0000 0.0000 26.3251 -1.3695 -1.4070 -20.4079 -19.9960 91.1926 -0.4647 -19.1374 17.1884 -1.3921 -7.4645 21.0991 1.7061 -0.6754 17.6729 -0.1657 -0.5762 2.3487 -1.0112 -0.3282 -7.3985 -0.4506 0.4483 -1.6643 0.5176 0.6480 -12.0528 0.2305 0.3229 -3.6023 0.0000 0.0000 0.0000 -83.7340 13.6975 41.0826 126.6534 -54.2592 -91.1308 -0.0000 0.0000 -27.3831 38.9297 5.3701 4.3232 -7.1250 0.0000 -0.0000 10.3373 36.6964 -2.1393 0.0000 0.0000 0.0000 79.8850 -12.2228 42.5828 -84.4284 59.8824 -55.1768 0.0000 -0.0000 -0.2912 -38.3452 28.0139 -20.3819 7.1250 -0.0000 -0.0000 -4.5442 4.0754 -4.8705
0.0775 17.5221 -28.7299 -3.2486 1.2048 2.4858 0.0000 0.0000 0.0000 -18.7048 -8.3500 -25.1743 4.5442 12.8514 38.8145 0.2337 -6.8263 -9.1938 0.1306 -2.3298 -6.4180 0.0000 0.0000 0.0000 24.7634 -1.7984 -4.0982 -21.9536 -19.9082 95.7203 -0.3983 -18.3166 16.2323 -1.7125 -8.2397 23.4444 0.7512 -0.8899 18.9461 -0.2560 -1.0361 2.2420 -0.4394 -0.5252 -8.2088 -0.6147 0.5327 -1.1271 0.6057 0.7667 -12.5731 0.2840 0.3843 -3.8914 -0.0000 0.0000 0.0000 -83.6275 11.3502 41.4724 127.1291 -54.0897 -91.5165 -0.0000 0.0000 -27.3760 37.9810 5.3881 4.1930 -7.1250 0.0000 -0.0000 9.5336 36.6568 -1.9784 -0.0000 0.0000 0.0000 80.0772 -13.3021 41.1783 -81.2550 59.7090 -52.4340 0.0000 0.0000 0.2431 -38.9842 28.6391 -21.2014 7.1250 -0.0000 -0.0000 -4.7577 5.0020 -5.1716
0.0803 17.4258 -28.2606 -1.8029 1.4011 2.2073 0.0000 0.0000 0.0000 -20.6606 -8.3688 -23.7798 4.8686 13.2342 40.2517 0.4102 -6.4275 -11.5832 0.2664 -3.3204 -9.1721 0.0000 0.0000 0.0000 22.2756 -1.8227 -7.0254 -23.4080 -19.7192 100.0093 -0.3762 -17.2174 15.4547 -1.9876 -8.8402 25.2967 -0.9313 -0.8572 19.5745 -0.5517 -1.3707 2.4078 0.2932 -0.6344 -8.3431 -0.8782 0.6049 -1.2389 0.8357 0.8846 -12.9597 0.4031 0.4457 -4.0129 0.0000 0.0000 0.0000 -83.3602 8.1561 42.1263 127.0957 -54.1017 -91.4895 -0.0000 0.0000 -26.9173 38.3065 5.9419 4.6749 -7.1250 0.0000 -0.0000 9.8639 37.3703 -1.8742 0.0000 0.0000 0.0000 80.4237 -13.8281 39.4863 -77.7713 59.4273 -49.4300 0.0000 0.0000 1.0927 -40.2238 28.2945 -21.8459 7.1250 -0.0000 -0.0000 -5.5361 5.0591 -6.0299
0.0888 17.3460 -27.7772 0.1594 1.1435 2.2165 0.0000 0.0000 0.0000 -23.1599 -8.1833 -22.3778 5.1087 13.5052 41.2904 0.6068 -5.9312 -13.8958 0.4235 -4.1768 -11.5747 0.0000 0.0000 0.0000 19.0287 -1.2999 -10.1618 -24.7222 -19.4567 103.9280 -0.4075 -15.7751 14.9648 -2.4370 -9.7225 28.0827 -3.0534 -0.6727 19.4716 -1.0215 -1.6146 2.4909 1.0526 -0.6938 -8.1490 -1.3750 0.7556 -0.6835 1.1752 1.1090 -13.3751 0.5959 0.5649 -4.2813 0.0000 0.0000 0.0000 -83.1309 5.3648 42.6827 127.3916 -53.9948 -91.7290 -0.0000 0.0000 -26.4719 38.9065 6.5841 5.2872 -7.1250 0.0000 -0.0000 10.4449 38.2218 -1.7664 0.0000 0.0000 0.0000 80.7004 -14.6565 37.8938 -74.6074 59.0855 -46.7106 0.0000 0.0000 1.9014 -41.0224 28.5188 -22.5563 7.1250 -0.0000 -0.0000 -5.9271 5.6121 -6.5118
0.0942 17.2677 -27.3112 1.8100 0.8587 2.3504 0.0000 0.0000 0.0000 -25.2391 -8.0637 -20.8438 5.2399 13.6489 41.8490 0.7997 -5.5702 -15.9387 0.5140 -4.5953 -12.7578 0.0000 0.0000 0.0000 16.1771 -0.6446 -13.6831 -25.8829 -19.1492 107.4382 -0.5408 -14.4952 15.5268 -3.4199 -11.3456 33.4547 -4.9432 -0.5744 19.7985 -1.3430 -1.9519 2.0680 1.8756 -0.7789 -8.7273 -1.9782 0.8988 0.6292 1.5131 1.3008 -13.8041 0.8088 0.6697 -4.7130 -0.0000 -0.0000 0.0000 -82.9753 3.4412 43.0194 128.0204 -53.7634 -92.2369 -0.0000 0.0000 -26.3692 38.6801 7.1555 5.6948 -7.1250 0.0000 -0.0000 10.3047 38.9184 -1.5634 -0.0000 -0.0000 0.0000 80.6784 -16.3160 36.7029 -72.0643 58.7489 -44.5325 0.0000 0.0000 2.4724 -41.1976 28.7959 -22.8628 7.1250 -0.0000 -0.0000 -5.9550 5.9943 -6.5783
0.1065 17.2056 -26.8461 2.4054 0.6184 2.5988 0.0000 0.0000 0.0000 -26.1493 -7.8647 -19.4240 5.3246 13.7402 42.2068 0.9396 -5.7959 -17.2943 0.4752 -4.4210 -12.2641 0.0000 0.0000 0.0000 14.7846 0.1594 -17.4330 -26.8003 -18.8531 110.2553 -0.3448 -13.8664 13.4399 -2.7433 -10.2674 29.8471 -5.4622 -0.4787 19.9836 -1.6342 -1.9774 2.1130 1.8631 -0.7770 -8.7710 -1.7659 0.8129 -0.2436 1.6778 1.2276 -13.7963 0.8310 0.6183 -4.5341 0.0000 0.0000 0.0000 -82.2870 0.1913 43.7549 128.2118 -53.6917 -92.3912 -0.0000 0.0000 -26.3720 38.4336 7.6374 6.0204 -7.1250 0.0000 -0.0000 10.1334 39.4972 -1.3908 0.0000 0.0000 0.0000 81.3728 -17.0627 34.7854 -69.8682 58.4118 -42.6583 0.0000 0.0000 2.7839 -41.4978 27.0226 -21.8970 7.1250 -0.0000 -0.0000 -6.5633 4.0732 -7.0581
0.1229 17.1661 -26.3700 2.2810 0.5654 2.9159 0.0000 0.0000 0.0000 -26.2729 -7.6457 -17.9889 5.3723 13.7912 42.4075 1.0455 -6.2988 -18.2504 0.4044 -4.0826 -11.3092 0.0000 0.0000 0.0000 14.4677 0.9113 -21.1677 -27.4481 -18.6143 112.2723 -0.1620 -13.7004 11.4760 -2.3149 -9.4933 27.3509 -5.3419 -0.6216 19.7487 -1.5341 -2.1157 2.0515 1.9355 -0.8468 -8.7011 -1.9479 0.9103 -0.1243 1.7171 1.3565 -13.9941 0.8724 0.6888 -4.6365 0.0000 -0.0000 0.0000 -82.0658 -2.5842 44.1155 128.3372 -53.6445 -92.4922 -0.0000 0.0000 -26.2948 38.3993 7.9393 6.2474 -7.1250 0.0000 -0.0000 10.1302 39.8699 -1.2963 0.0000 -0.0000 0.0000 81.5232 -18.2248 33.3244 -68.4628 58.1727 -41.4626 0.0000 0.0000 2.6921 -41.9432 25.7076 -21.2957 7.1250 -0.0000 -0.0000 -7.1338 2.7068 -7.5202
